<svg xmlns="http://www.w3.org/2000/svg" width="32" height="28" viewBox="0 0 32 28"><path d="M28.25 12.25q.725 0 1.237.513T30 14t-.513 1.237-1.237.513h-.205l-1.572 9.05q-.11.63-.602 1.04t-1.12.41H7.25q-.63 0-1.12-.41t-.603-1.04l-1.572-9.05H3.75q-.725 0-1.237-.513T2 14t.513-1.237 1.237-.513h24.5zM8.63 23.188q.355-.027.595-.308t.212-.636L9 16.556q-.028-.355-.31-.595t-.635-.21-.595.307-.212.636l.438 5.688q.027.343.28.575t.595.232h.07zm5.62-.875v-5.688q0-.355-.26-.615t-.615-.26-.615.26-.26.615v5.688q0 .355.26.615t.615.26.615-.26.26-.615zm5.25 0v-5.688q0-.355-.26-.615t-.615-.26-.615.26-.26.615v5.688q0 .355.26.615t.615.26.615-.26.26-.615zm4.812.068l.438-5.687q.027-.355-.212-.636t-.595-.308-.636.21-.308.596l-.44 5.688q-.026.355.213.636t.595.308h.068q.342 0 .595-.232t.28-.574zM8.507 5.743l-1.272 5.633H5.43l1.38-6.03q.26-1.202 1.218-1.96t2.188-.76H12.5q0-.355.26-.615t.614-.26h5.25q.355 0 .615.26t.26.615h2.282q1.23 0 2.188.76t1.217 1.96l1.38 6.03h-1.804L23.49 5.742q-.15-.602-.62-.984t-1.088-.383H19.5q0 .355-.26.615t-.616.26h-5.25q-.355 0-.615-.26t-.26-.615h-2.284q-.615 0-1.087.383t-.623.984z"/></svg>