<svg xmlns="http://www.w3.org/2000/svg" width="28" height="28" viewBox="0 0 28 28"><path d="M14.5 13q0-.22-.14-.36T14 12.5q-1.03 0-1.766.734T11.5 15q0 .22.14.36t.36.14.36-.14.14-.36q0-.625.438-1.062T14 13.5q.22 0 .36-.14t.14-.36zm3.5 2.03q0 1.657-1.172 2.83T14 19.03t-2.828-1.17T10 15.03t1.172-2.827T14 11.03t2.828 1.173T18 15.03zM2 24h24v-2H2v2zm18-8.97q0-2.483-1.758-4.24T14 9.03t-4.242 1.76T8 15.03t1.758 4.243T14 21.03t4.242-1.757T20 15.03zM4 5h6V3H4v2zM2 8h24V4H13.062l-1 2H2v2zm26-4v20q0 .828-.586 1.414T26 26H2q-.828 0-1.414-.586T0 24V4q0-.828.586-1.414T2 2h24q.828 0 1.414.586T28 4z"/></svg>