<svg xmlns="http://www.w3.org/2000/svg" width="28" height="28" viewBox="0 0 28 28"><path d="M10 12.25q0-.828-.586-1.414T8 10.25t-1.414.586T6 12.25t.586 1.414T8 14.25t1.414-.586T10 12.25zm6 0q0-.828-.586-1.414T14 10.25t-1.414.586T12 12.25t.586 1.414T14 14.25t1.414-.586T16 12.25zm6 0q0-.828-.586-1.414T20 10.25t-1.414.586T18 12.25t.586 1.414T20 14.25t1.414-.586T22 12.25zm6 0q0 2.72-1.875 5.023t-5.094 3.64T14 22.25q-1.72 0-3.297-.28Q8 24.67 3.906 25.546q-.812.156-1.344.203-.187.016-.344-.094t-.203-.28q-.063-.235.313-.58.078-.077.367-.335t.398-.366.367-.398.375-.492.32-.578.313-.75.227-.898.195-1.133q-2.28-1.406-3.586-3.383T0 12.252q0-2.72 1.874-5.024t5.094-3.64 7.03-1.337 7.032 1.337 5.094 3.64T28 12.252z"/></svg>