<svg xmlns="http://www.w3.org/2000/svg" width="28" height="28" viewBox="0 0 28 28"><path d="M5.3 5.98l.6.6L3.445 9.04l1.915 1.915 2.467-2.468.56.56-2.467 2.47 1.89 1.89 5.614-5.615L6.59.995.994 6.59l1.85 1.85 2.457-2.458zm14.912 8.597l-5.614 5.615 1.89 1.89 2.468-2.47.56.562-2.467 2.468 1.914 1.915L21.42 22.1l.6.6-2.456 2.457 1.85 1.85 5.594-5.595-6.795-6.835zm5.882-7.182c.683-.684.69-1.79.01-2.468l-3.072-3.072a1.745 1.745 0 0 0-2.468.01l-1.9 1.9 5.53 5.53 1.9-1.9zM2.974 22.7l2.294 2.294 4.623-1.642-5.275-5.276L2.973 22.7zM18.068 4.324L5.044 17.35l5.573 5.573L23.643 9.898 18.07 4.325zM7.574 17.34L18.058 6.855l.61.61L8.186 17.952l-.61-.61zm1.22 1.22L19.28 8.08l.61.61L9.407 19.173l-.61-.61zm1.223 1.222L20.5 9.3l.61.61-10.48 10.483-.612-.61zM1.71 26.26l2.683-.978-1.705-1.705-.977 2.683z"/></svg>