<svg xmlns="http://www.w3.org/2000/svg" width="28" height="28" viewBox="0 0 28 28"><path d="M18 23.438q-.656-3.766-2.188-7.78h-.03l-.032.015q-.25.094-.672.258t-1.578.767-2.14 1.28-2.048 1.79-1.61 2.312l-.233-.173Q10.343 24.25 14 24.25q2.063 0 4-.81zm-2.89-9.485q-.33-.766-.83-1.734Q9.423 13.67 3.766 13.67q-.016.11-.016.328 0 1.937.687 3.695t1.937 3.148q.78-1.39 1.93-2.602t2.227-1.944 2.04-1.266 1.555-.75l.578-.203q.063-.016.203-.055t.203-.07zm-1.672-3.312q-1.875-3.327-3.813-5.905Q7.47 5.75 5.97 7.64t-2 4.25q4.718 0 9.468-1.25zm10.687 4.985q-3.28-.938-6.39-.453 1.358 3.734 2 7.328 1.733-1.172 2.89-2.96t1.5-3.915zM11.547 4.047q-.016 0-.03.016.015-.016.03-.016zm9.22 2.265Q17.874 3.75 14 3.75q-1.188 0-2.422.297 2.047 2.656 3.844 5.97 1.078-.407 2.03-.946t1.51-.96 1.022-.89.586-.634zm3.483 7.58q-.047-3.626-2.328-6.407l-.016.016q-.14.188-.297.384t-.68.695-1.11.944-1.563 1.016-2.055 1.008q.39.828.688 1.484.03.094.102.273t.117.258q.56-.078 1.163-.11t1.148-.03 1.08.023 1 .063.882.085.75.102.57.094.39.07zM26 14q0 3.266-1.61 6.023t-4.366 4.367T14 26 7.98 24.39 3.61 20.023 2.003 14t1.61-6.023T7.977 3.61 14 2t6.024 1.61 4.367 4.367T26 14z"/></svg>