<svg xmlns="http://www.w3.org/2000/svg" width="28" height="28" viewBox="0 0 28 28"><path d="M24.5 12.25h.438c.722 0 1.313-.59 1.313-1.313V6.562c0-.722-.59-1.313-1.312-1.313H24.5V0H21v5.25h-.438c-.722 0-1.313.59-1.313 1.312v4.375c0 .722.59 1.313 1.312 1.313H21V28h3.5V12.25zM21 7h3.5v3.5H21V7zm-4.812 15.75c.722 0 1.313-.59 1.313-1.313v-4.375c0-.722-.59-1.313-1.312-1.313h-.438V0h-3.5v15.75h-.438c-.722 0-1.313.59-1.313 1.312v4.375c0 .722.59 1.313 1.312 1.313h.438V28h3.5v-5.25h.438zM12.25 17.5h3.5V21h-3.5v-3.5zm-4.812-5.25c.722 0 1.313-.59 1.313-1.313V6.562c0-.722-.59-1.313-1.312-1.313H7V0H3.5v5.25h-.438c-.722 0-1.313.59-1.313 1.312v4.375c0 .722.59 1.313 1.312 1.313H3.5V28H7V12.25h.438zM3.5 7H7v3.5H3.5V7z"/></svg>