<svg xmlns="http://www.w3.org/2000/svg" width="28" height="28" viewBox="0 0 28 28"><path d="M17.463 14.207q0 2.528-1.057 4.503t-3.014 3.087-4.485 1.112q-1.81 0-3.463-.706T2.6 20.308.704 17.464 0 14t.704-3.462T2.6 7.694t2.844-1.896 3.463-.705q3.476 0 5.967 2.333l-2.418 2.32q-1.422-1.373-3.548-1.373-1.495 0-2.765.754t-2.01 2.048T3.39 14t.742 2.827 2.01 2.048 2.766.754q1.01 0 1.853-.28t1.392-.698.954-.954.596-1.01.26-.898H8.908v-3.063h8.41q.145.765.145 1.482zM28 12.724v2.552h-2.54v2.54h-2.552v-2.54h-2.54v-2.552h2.54v-2.54h2.552v2.54H28z"/></svg>