<svg xmlns="http://www.w3.org/2000/svg" width="28" height="28" viewBox="0 0 28 28"><path d="M6.067 19.6q-.962 0-1.648-.685t-.686-1.648V7q0-.962.685-1.648t1.647-.685h15.867q.962 0 1.648.685T24.267 7v10.267q0 .962-.685 1.648t-1.648.685H6.067zM5.6 7v10.267q0 .19.138.33t.33.137h15.866q.19 0 .33-.138t.137-.33V7q0-.19-.137-.33t-.33-.137H6.068q-.19 0-.33.138T5.6 7zm20.067 13.533H28v1.4q0 .583-.685.99t-1.648.41H2.334q-.962 0-1.648-.41T0 21.934v-1.4H25.67zm-10.5 1.4q.233 0 .233-.233t-.233-.233h-2.333q-.233 0-.233.233t.234.233h2.333z"/></svg>