<svg xmlns="http://www.w3.org/2000/svg" width="28" height="28" viewBox="0 0 28 28"><path d="M17.5 10.5l-5.25 8.75-3.474-2.534-.026-.09-.207-.08.16.117L3.5 21v1.75h21V21l-2.626-7.875L17.5 10.5zm-9.625.875a2.625 2.625 0 1 0 0-5.25 2.625 2.625 0 0 0 0 5.25zm19.25-9.625H.875A.875.875 0 0 0 0 2.625v22.75c0 .484.392.875.875.875h26.25c.484 0 .875-.39.875-.875V2.625a.875.875 0 0 0-.875-.875zm-.875 21.875c0 .484-.39.875-.875.875H2.625a.875.875 0 0 1-.875-.875V4.375c0-.483.392-.875.875-.875h22.75c.484 0 .875.392.875.875v19.25z"/></svg>