<svg xmlns="http://www.w3.org/2000/svg" width="28" height="28" viewBox="0 0 28 28"><path d="M4 10.203q0-1.687.586-3.18T6.203 4.42 8.578 2.5t2.89-1.22 3.157-.406q2.47 0 4.594 1.04t3.452 3.022T24 9.42q0 1.5-.297 2.938t-.938 2.766-1.563 2.336-2.266 1.61-2.953.6q-1.062 0-2.11-.5t-1.5-1.374q-.155.61-.437 1.758t-.367 1.484-.32 1.11-.407 1.108-.5.977-.72 1.21-.968 1.353l-.22.078-.14-.156q-.234-2.453-.234-2.938 0-1.437.337-3.227t1.04-4.492.81-3.17q-.5-1.017-.5-2.642 0-1.297.813-2.438t2.063-1.14q.953 0 1.484.632t.53 1.602q0 1.03-.687 2.984t-.688 2.922q0 .984.703 1.633t1.703.648q.86 0 1.594-.39t1.227-1.062.874-1.484.594-1.727.313-1.734.103-1.555q0-2.703-1.71-4.21T14.2 3.417q-3.124 0-5.218 2.024t-2.094 5.133q0 .688.195 1.328t.422 1.016.422.71.195.477q0 .438-.234 1.14t-.578.704q-.03 0-.266-.046-.797-.234-1.414-.875t-.953-1.478-.508-1.687-.173-1.664z"/></svg>