<svg xmlns="http://www.w3.org/2000/svg" width="28" height="28" viewBox="0 0 28 28"><path d="M8.648 14q-2.362.073-3.865 1.867H2.83q-1.197 0-2.013-.59T0 13.546Q0 8.4 1.808 8.4q.088 0 .635.305t1.42.62T5.6 9.64q.976 0 1.938-.336-.073.54-.073.962 0 2.027 1.182 3.733zm15.62 9.29q0 1.75-1.066 2.763t-2.83 1.014H7.628q-1.765 0-2.83-1.014T3.734 23.29q0-.774.05-1.51t.205-1.59.386-1.58T5 17.187t.905-1.182 1.247-.78 1.626-.292q.146 0 .627.314t1.065.7 1.56.7 1.97.314 1.967-.314 1.56-.7 1.066-.7.627-.314q.89 0 1.626.292t1.247.78.904 1.182.627 1.42.386 1.583.204 1.59.05 1.51zM9.332 4.666q0 1.546-1.094 2.64T5.6 8.4 2.96 7.306t-1.093-2.64T2.96 2.03 5.6.934t2.64 1.094 1.093 2.64zm10.267 5.6q0 2.318-1.64 3.96T14 15.866t-3.96-1.64-1.64-3.96 1.64-3.96T14 4.668t3.96 1.64 1.64 3.96zm8.4 3.28q0 1.14-.817 1.73t-2.012.59h-1.953q-1.502-1.793-3.865-1.866 1.182-1.705 1.182-3.732 0-.423-.073-.962.963.335 1.94.335.86 0 1.735-.313t1.42-.62.636-.306Q28 8.4 28 13.55zm-1.867-8.88q0 1.546-1.094 2.64T22.4 8.4t-2.64-1.094-1.093-2.64T19.76 2.03 22.4.934t2.64 1.094 1.093 2.64z"/></svg>