<svg xmlns="http://www.w3.org/2000/svg" width="28" height="28" viewBox="0 0 28 28"><path d="M20 14q0-.578-.47-.844l-8-5q-.483-.313-1.015-.03Q10 8.405 10 9v10q0 .594.515.875.25.125.484.125.312 0 .53-.156l8-5Q20 14.578 20 14zm8 0q0 1.5-.016 2.344t-.133 2.133-.35 2.305q-.25 1.14-1.08 1.922t-1.936.906Q21.014 24 14 24t-10.484-.39q-1.11-.125-1.945-.906T.486 20.782q-.22-1.016-.336-2.305t-.134-2.133T0 14t.016-2.344.133-2.133.35-2.305q.25-1.14 1.08-1.922t1.936-.906Q6.986 4 14 4t10.484.39q1.11.125 1.945.906t1.085 1.922q.22 1.016.336 2.305t.134 2.133T28 14z"/></svg>